. 
  
http://www.torrentday.com/        :     The Hottest Private Tracker On The Net!!! 
http://www.torrentday.com          :     Once you visit it, You can't stop yourself visiting Torrentday everyday ;)


               www . TorrentDay . Com 

(((((((((((((= Enjoy No RAR releases =))))))))))))))))))))


...................................NFO:....................................

.[img]http://img839.imageshack.us/img839/3125/twelvebluray.jpg[/img]

Twelve 2010 BDRip XVID AC3 HQ Hive-CM8



[b]Thx Hive

CM8 Doing It Right The First Time :D

Why download a touched up rip of a rip BRrip
Get the real deal BDRip
Enjoy

Source Bluray

Video: 720x384 @bitrate 1800 2pass
Audio: DTS to AC3 5.1 @448
Sample: yes included
Subs: yes in srt /subs English[/b]


[url]http://www.imdb.com/title/tt1407084/ [/url]


General
Complete name                    : Twelve.2010.BDRip.XVID.AC3.HQ.Hive-CM8.avi
Format                           : AVI
Format/Info                      : Audio Video Interleave
File size                        : 1.49 GiB
Duration                         : 1h 34mn
Overall bit rate                 : 2 257 Kbps
Writing application              : Nandub v1.0rc2
Writing library                  : Nandub build 1853/release

Video
ID                               : 0
Format                           : MPEG-4 Visual
Format profile                   : Advanced Simple@L5
Format settings, BVOP            : Yes
Format settings, QPel            : Yes
Format settings, GMC             : No warppoints
Format settings, Matrix          : Default (H.263)
Muxing mode                      : Packed bitstream
Codec ID                         : XVID
Codec ID/Hint                    : XviD
Duration                         : 1h 34mn
Bit rate                         : 1 800 Kbps
Width                            : 720 pixels
Height                           : 384 pixels
Display aspect ratio             : 1.850
Frame rate                       : 23.976 fps
Color space                      : YUV
Chroma subsampling               : 4:2:0
Bit depth                        : 8 bits
Scan type                        : Progressive
Bits/(Pixel*Frame)               : 0.272
Stream size                      : 1.19 GiB (80%)
Writing library                  : XviD 1.2.1 (UTC 2008-12-04)

Audio
ID                               : 1
Format                           : AC-3
Format/Info                      : Audio Coding 3
Mode extension                   : CM (complete main)
Codec ID                         : 2000
Duration                         : 1h 34mn
Bit rate mode                    : Constant
Bit rate                         : 448 Kbps
Channel(s)                       : 6 channels
Channel positions                : Front: L C R, Side: L R, LFE
Sampling rate                    : 48.0 KHz
Bit depth                        : 16 bits
Stream size                      : 303 MiB (20%)
Alignment                        : Split accross interleaves
Interleave, duration             : 42 ms (1.00 video frame)
Interleave, preload duration     : 500 ms




Chace Crawford... White Mike
Rory Culkin ... Chris
Philip Ettinger ... Hunter
Esti Ginzburg ... Sara Ludlow
50 Cent... Lionel (as Curtis Jackson)
Zo Kravitz ... Gabby
Billy Magnussen ... Claude
Emily Meade ... Jessica Brayson
Emma Roberts ... Molly
Ellen Barkin ... Jessica's Mother
Kiefer Sutherland... Narrator (voice)



A young drug dealer watches as his high-rolling life is
dismantled in the wake of his cousin's murder, which sees his
best friend arrested for the crime.




[img]http://img146.imageshack.us/img146/2448/tewtew.png[/img]
[img]http://img211.imageshack.us/img211/3602/tttetewwttewewewewtew.png[/img]
[img]http://img217.imageshack.us/img217/2679/tttettewewwttewewewewte.png[/img]
[img]http://img521.imageshack.us/img521/8163/tttewewewtew.png[/img]
[img]http://img560.imageshack.us/img560/8224/tttewtetewttewewwttewew.png[/img]
[img]http://img708.imageshack.us/img708/1629/tttewtettewewwttewewewe.png[/img]
[img]http://img153.imageshack.us/img153/7812/tttewtewewewtew.png[/img]
[img]http://img255.imageshack.us/img255/1200/tttewttetewwetewtteweww.png[/img]
[img]http://img829.imageshack.us/img829/345/tttewttewewewewtew.png[/img]
[img]http://img692.imageshack.us/img692/1642/ttttewewewewtew.png[/img]
[img]http://img403.imageshack.us/img403/1880/25372926.png[/img]





Greetz

iNK,LUSi,,MAGNET,CLASSiFiED,THC,LEGi0N,IMAGiNE,ViSiON,WBZ,FLAWL3SS,NOVA
Rapeseed,D2U,SAFC,goldadvance,MEMORY100,KaN1vE,Unevano,Pinnz,Wayne,Mr Hive
and all P2P groups 
Great Work Guys :D